<svg xmlns="http://www.w3.org/2000/svg" viewBox="0 0 57.65 35.72"><g fill="#fff"><path d="M20.52 9.45h-2.7a1.23 1.23 0 0 0-.5.08 16.54 16.54 0 0 0-1.7.93 8.14 8.14 0 0 0-3.03 3.76c-.22.54-.35 1.1-.54 1.7h10.2a10.3 10.3 0 0 1 2.3-5.95l-1.1-.48c-.18-.07-.29-.15-.27-.37V7.4h-2.16V5.97a.66.66 0 0 1 .74-.74L26 5.16c.65 0 .9.25.9.9v1.8l.9-.5a.31.31 0 0 0 .13-.24 11.8 11.8 0 0 0 0-1.33 1.77 1.77 0 0 0-1.82-1.67c-1.5.05-3 .06-4.45.1a1.63 1.63 0 0 0-1.18.44 1.66 1.66 0 0 0-.5 1.18V7.4h-.55V6.27h-1.2c-.05 0-.14.14-.14.22v.9a1.05 1.05 0 0 1-.2 0c-.26-.04-.35.06-.33.32a6.85 6.85 0 0 1 0 .78c0 .2.08.27.28.27h3v.65h-.33"/><path d="M11.75 14.7a9.78 9.78 0 0 1 1.35-2.67l-.72-.28c-.22-.08-.35-.17-.32-.43a8.41 8.41 0 0 0 0-.87c0-.29-.06-.29-.28-.28h-1.64v-.73c0-.77.17-.95.92-.96L15 8.45a.66.66 0 0 1 .76.72v.42l.85-.44a.25.25 0 0 0 .1-.2 1.62 1.62 0 0 0-1.56-1.5c-1.48 0-2.95.04-4.43.08a1.5 1.5 0 0 0-1.53 1.5v.92c0 .18-.05.27-.25.26s-.3-.02-.3-.24v-.6H7.56V10c0 .37-.37.08-.5.24v.86H9.9v.6c-.73 0-1.43.03-2.13 0a3.4 3.4 0 0 0-1.88.5 7.89 7.89 0 0 0-3.76 4.38c-.12.34-.2.7-.3 1.08h9.49a11.36 11.36 0 0 1 .44-2.93m40.9 11.43a.5.5 0 0 1 .57.47c.04.53 0 1.06 0 1.63h-.9v1h3.14v-1h-.8v-1.5a2 2 0 0 0-1.23-1.83 5.81 5.81 0 0 0-1.86-.1.2.2 0 0 0-.13.13v1.23c.44 0 .84.03 1.24 0m-2.89.3c0 .03.1.1.14.11h.93v-2.16H49.8v2m-.55-2.36h2.15v-.6h-1.8c-.37 0-.37 0-.36.4v.18m-35.3 8.57l-1.03.72h2.25l-1-.7a.23.23 0 0 0-.2 0m1.7-1.17l-.98.65M12.57 31.58v1"/><path d="M13.94 32.63l-1.03.72h2.25l-1-.7a.23.23 0 0 0-.2 0M11 26.98l-4.74-.7a8.82 8.82 0 0 0 4.74.7"/><path d="M6.3 26.42l2.62 1.8a.32.32 0 0 0 .29 0l1.76-1.2a8.82 8.82 0 0 1-4.73-.7c.04.08.04.1.06.11"/><path d="M40.31 22.6a12.82 12.82 0 0 0-1.38.8.38.38 0 0 1-.16.05 11.92 11.92 0 0 0 2.17-2.78 5.5 5.5 0 0 0 0 .76.97.97 0 0 1-.64 1.16m.6 10.2l-8-4.95 8-4.84zm-12.76.55v-2.5a.23.23 0 0 1 .11-.17q1.94-1.19 3.89-2.36a.23.23 0 0 1 .22.02q2.93 1.83 5.85 3.68l2.11 1.33zm-1.15-2.78c-.45.25-.88.54-1.33.8a.39.39 0 0 1-.35 0l-2.1-1.5a.3.3 0 0 1-.11-.24v-3.06a.32.32 0 0 1 .11-.22c.9-.63 1.79-1.25 2.7-1.86a.4.4 0 0 1 .33 0 5.44 5.44 0 0 1 .78.5.5.5 0 0 1 .17.36v4.86a.36.36 0 0 1-.2.37m.17 2.1l-1-.7 1-.62zm-4.05.23v-2.17l1.61 1.18-1.58.97m.71.47c.5-.32 1-.6 1.44-.88a.29.29 0 0 1 .25 0l1.23.86zm4.31-7.67l3.41 2.14-3.4 2.04zm7.39-.24l-1.2.72-1.9 1.13a.4.4 0 0 1-.35 0 155.7 155.7 0 0 1-3.22-2l-.09-.07a10.37 10.37 0 0 0 6.75.17M22.2 33.12c0 .16-.03.25-.22.25H16.6l-.1-.03V31a.36.36 0 0 1 .16-.23l2.68-1.82c.22-.15.46-.39.67-.38s.45.27.66.42c.45.32.89.63 1.33.96a.46.46 0 0 1 .19.32v2.86m-5.66-7.14l2.78 2-2.78 1.9zm5.68 1v2.1l-1.5-1.07 1.5-1.03m-6.5-1.22v4.4a.5.5 0 0 1-.23.45l-1.3.9a.32.32 0 0 1-.41 0c-.34-.24-.69-.46-1-.7a.57.57 0 0 1-.19-.38v-3.36a.44.44 0 0 1 .23-.42c.44-.28.88-.58 1.3-.88.3-.2.56-.44.86-.64a.39.39 0 0 1 .33-.04.64.64 0 0 1 .43.68m-.02 7.02l-1.03-.66.97-.65zm-3.1-.22v-1l.74.5-.73.5m-.98.78H2.96l2.1-1.44 3.8-2.6a.27.27 0 0 1 .35 0l2.31 1.6a.31.31 0 0 1 .12.2v2.27m-9.1-8.63l5.87 4-5.86 4zm0-1.55a1.7 1.7 0 0 0 0-.39l1.62 2.14-.37-.25a8.26 8.26 0 0 0-.69-.46.88.88 0 0 1-.6-1.04m9.11 4.24v2.62l-1.92-1.3 1.93-1.32m21.2-24.17a4.1 4.1 0 0 0-.2 1.54c0 .44 0 .45-.46.44h-.36a9.15 9.15 0 0 1 .16-2.45 1.73 1.73 0 0 1 1.63-1.3h9.6a1.96 1.96 0 0 1 2.08 1.37 5.04 5.04 0 0 1 .2 1.46v8.45l.03 2.7q0 4.6-.03 9.2a.57.57 0 0 1 0 .1 4.7 4.7 0 0 1-.65 0c-.08 0-.16-.12-.19-.2a1.34 1.34 0 0 1 0-.38v-7.85a2.44 2.44 0 0 0-.06-.42v-.05c0-.4.04-.8.07-1.2V4.33a3.09 3.09 0 0 0-.23-1.12 1.76 1.76 0 0 0-1.6-1.09h-.1c-2.76 0-5.5-.06-8.28-.07a1.82 1.82 0 0 0-1.59 1.23m5.58.17l3.56.04h.63a.57.57 0 0 1 .61.6v20.35a1.67 1.67 0 0 0 1.75 1.73h.55v3.1h1.5v-3.1h2c.22 0 .29-.08.27-.29s0-.46 0-.7c0-.4 0-.4-.41-.4H47V7.17c0-1.29 0-2.58-.08-3.87a3.42 3.42 0 0 0-.96-2.17 3.65 3.65 0 0 0-2.83-1.1Q38.35 0 33.56 0a2.93 2.93 0 0 0-1.03.15 3.3 3.3 0 0 0-2.12 2.72 9.6 9.6 0 0 0-.08 1.63c0 .78 0 .78-.77.78h-.35v1.4h3.5v.82h-3.3a.83.83 0 0 0-.36.04 17.2 17.2 0 0 0-1.96 1 9.14 9.14 0 0 0-3.42 4.05c-.17.4-.3.81-.5 1.27h14.69v.68H23.4c-.27 0-.39.05-.43.34a10.3 10.3 0 0 0 .04 3.28c.04.2.14.36.19.54a11.07 11.07 0 0 0 .28 1.1 9.5 9.5 0 0 0 2.73 3.87l.22.2a2.87 2.87 0 0 1-.38.31.23.23 0 0 1-.23 0 9.4 9.4 0 0 1-2.06-2.38c-.24-.38-.45-.78-.7-1.23v4.73a.37.37 0 0 1-.15.3 3.13 3.13 0 0 0-.9.52 19.4 19.4 0 0 1-1.82 1.28.33.33 0 0 1-.45 0l-2.5-1.78-.81-.6a.25.25 0 0 1 .17 0 16.86 16.86 0 0 0 1.58.61 8.76 8.76 0 0 0 3.64.2c.25-.05.38-.1.38-.4v-8.96H12a8.37 8.37 0 0 0 3.21 7.61c-.3.04-.5.07-.7.08a.5.5 0 0 1-.33-.09c-.24-.23-.44-.5-.66-.74a8.91 8.91 0 0 1-1.96-3.95c-.09-.4-.14-.8-.21-1.2H1.72v14.88c0 .23-.05.3-.29.3H0v2.36h57.65v-2.35h-.81c-.27 0-.34-.06-.33-.32V30.3c0-.28-.07-.36-.35-.36h-12.3c-.6 0-.6 0-.6.6 0 .78.08 1.57.1 2.35 0 .16-.12.43-.2.44a12.53 12.53 0 0 1-1.3 0V16.51a10.11 10.11 0 0 0-.2-2.1 9.49 9.49 0 0 0-5.92-6.86.4.4 0 0 1-.32-.46c.03-.53 0-1.06 0-1.6 0-.17-.05-.23-.23-.23h-1c-.08 0-.22-.1-.22-.15a8.76 8.76 0 0 1 .07-1.2c.06-.36.25-.47.62-.47h2.84m-10.29 24.3"/></g></svg>
