<svg xmlns="http://www.w3.org/2000/svg" viewBox="0 0 53.8 49.4"><path d="M23.3 15.7a7.5 7.5 0 0 1 4.4-2.4l-.3-3a4.9 4.9 0 0 1-3.2-1.8 4.7 4.7 0 1 1 8.3-2.8 4.5 4.5 0 0 1-2.4 4 .7.7 0 0 0-.5.7L30 13a.6.6 0 0 0 .2.5 7.7 7.7 0 0 1 3.6 2l2.5-2.6c1.1-1 2.2-2 3.2-3.2a1.1 1.1 0 0 0 .3-.8 7.2 7.2 0 1 1 8.3 5.4 6.8 6.8 0 0 1-4.8-.8.8.8 0 0 0-1 0l-6.3 4.4a.7.7 0 0 0-.3.8 24.8 24.8 0 0 1 .1 3.2c0 .4 0 .6.4.8l4.2 2.1a1 1 0 0 0 1.2 0 2.7 2.7 0 0 1 3.8 1.4 2.8 2.8 0 0 1-1.6 3.6 2.6 2.6 0 0 1-3.6-1.8 2 2 0 0 0-1.4-1.6 212 212 0 0 1-3.7-1.8c-.7.6-1.2 1.1-1.9 1.5l-2 1.3 1.2 5.3.4 2a.8.8 0 0 0 .5.5 7.2 7.2 0 1 1-4.8.9.9.9 0 0 0 .5-1l-.8-6.9a.8.8 0 0 0-.4-.6L24 26.2l-1.3 1a18.2 18.2 0 0 1 .7 2.2 5.1 5.1 0 0 1-4.2 6 5.2 5.2 0 0 1-6-4.2 5.1 5.1 0 0 1 4.2-6 4.8 4.8 0 0 1 3.1.4.6.6 0 0 0 .9 0c.4-.5.9-.8 1.3-1.1-1.2-2.9-1.3-3.4-1-5.7l-1.3-.6-7.5-3.8a.9.9 0 0 0-1.2.1A7.1 7.1 0 0 1 .3 7a7 7 0 0 1 8-5 7.2 7.2 0 0 1 6 7.3 1 1 0 0 0 .3.7l8.3 5.5.4.2" fill="#fff"/></svg>
