<svg xmlns="http://www.w3.org/2000/svg" viewBox="0 0 54.3 39.5"><g fill="#fff"><path d="M54.3 5.3l-1-.4L36 .1a3.7 3.7 0 0 0-2.3.1L3.5 10.7.1 12v4.8A43 43 0 0 1 5 18a3.6 3.6 0 0 1 2.3 3.7v3.1a.8.8 0 0 1-.6 1l-6 2.5c-.3 0-.7.3-.7.6v4.7l21.7 5.8a2 2 0 0 0 1.2-.2l5.8-2.6 24.9-11.3c.2 0 .7-.4.7-.6v-4.2l-1.1.4-30.6 13.3a2.2 2.2 0 0 1-1.2.3 29.7 29.7 0 0 1-4.4-1 4.8 4.8 0 0 1-1.8-1.8c-.4-.5-.3-1 .5-1.3L33 23.1l13.5-5.8a.9.9 0 0 0 .6-.6v-4L24 22.1v-4a1 1 0 0 1 .8-1.2L46 8.6l8.3-3.4"/><path d="M54.3 5.3L46 8.6 24.8 17a1 1 0 0 0-.8 1.2v4l23-9.4v4c0 .2-.4.5-.7.6L33 23.1l-17.3 7.3c-.8.4-.9.8-.5 1.4a4.8 4.8 0 0 0 1.8 1.6 29.7 29.7 0 0 0 4.4 1 2.2 2.2 0 0 0 1.2-.2L53.2 21l1-.4v4.2c0 .2-.4.5-.6.6L28.7 36.6 23 39.2a2 2 0 0 1-1.2.2L0 33.6v-4.8c0-.2.4-.5.6-.6l6.1-2.5a.8.8 0 0 0 .7-1v-3A3.6 3.6 0 0 0 5 18a45 45 0 0 0-5-1.2V12l3.5-1.3L33.6.2a3.7 3.7 0 0 1 2.3 0L53.3 5l1 .4"/></g></svg>
