<svg xmlns="http://www.w3.org/2000/svg" viewBox="0 0 16.9 15.4"><circle cx="2.8" cy="2.8" r="2.8" transform="translate(0 9.7)" fill="#fff"/><path d="M8.4 9.7a2.8 2.8 0 1 0 2 .9 2.8 2.8 0 0 0-2-.9z" fill="#fff"/><circle cx="2.8" cy="2.8" r="2.8" transform="translate(11.2 9.7)" fill="#fff"/><path d="M5.6 10.5a2.8 2.8 0 1 0-2-.8 2.8 2.8 0 0 0 2 .8z" fill="#fff"/><circle cx="2.8" cy="2.8" r="2.8" transform="translate(8.4 4.9)" fill="#fff"/><path d="M8.4 5.6a2.8 2.8 0 1 0-2.8-2.8 2.8 2.8 0 0 0 2.8 2.8z" fill="#fff"/></svg>
