<svg xmlns="http://www.w3.org/2000/svg" viewBox="0 0 52.1 51.3"><g fill="#fff"><path d="M33.8.5l11.1 7.9a3 3 0 0 1 .8 1.3 13 13 0 0 1 .7 6.6 7.2 7.2 0 0 1-.1.8l5.8.7-.4.3-12.1 7a.6.6 0 0 1-.7 0l-10.8-9.3-.3-.3 6 .6.3-2 1-8.3a8 8 0 0 0-1-4.5l-.4-.7V.5m-13.6 46l-3.4 4.8c0-5 0-10-.2-15l14-5-3.2 4.8 1.6 1.4a51.2 51.2 0 0 0 7 5 7.5 7.5 0 0 0 5 1.2l-.4.2-11.8 5.7a3.3 3.3 0 0 1-1.7 0 12.8 12.8 0 0 1-6-2.6l-.8-.5m-4.5-20l-3-5.1L9 23.3a55.4 55.4 0 0 0-5.3 3 8.3 8.3 0 0 0-3.6 4v-.5L0 17.4a3.5 3.5 0 0 1 .6-2A13.2 13.2 0 0 1 5.7 11l.8-.5-2.9-5h.1l2.3 1 10.7 4.9a.7.7 0 0 1 .4.9L15.8 26a5.5 5.5 0 0 1 0 .6"/><path d="M22.8 14.4L18.1 4l5.7-2.4c1.8-.6 3.8-1 5.6-1.5A3.4 3.4 0 0 1 33.8 3a25 25 0 0 1 .2 4 25.6 25.6 0 0 1-.3 3.2.6.6 0 0 1-.3.4L23 14.4a1 1 0 0 1-.2 0m-5.3 16.4L12 40.5 9.1 39a39 39 0 0 1-7.2-5.7 2.9 2.9 0 0 1-.3-3.7 10.8 10.8 0 0 1 3.4-3l3.4-2a.7.7 0 0 1 .6 0l8.4 6a2 2 0 0 1 .1.2M33.3 28l11.2 1-.1 3a36.2 36.2 0 0 1-2 8.8 2.4 2.4 0 0 1-3 1.8 11.6 11.6 0 0 1-3.2-1.2l-4.4-3a.6.6 0 0 1-.2-.5l1.7-10"/></g></svg>
